<svg width="24.000000" height="24.000000" viewBox="0 0 24 24" fill="none" xmlns="http://www.w3.org/2000/svg" xmlns:xlink="http://www.w3.org/1999/xlink">
	<desc>
			Created with Pixso.
	</desc>
	<defs/>
	<path id="󰄯" d="M15.13 22.42Q13.63 22.86 12 22.86Q10.36 22.86 8.86 22.42Q7.63 22.05 6.49 21.38Q5.18 20.61 4.15 19.56Q3.19 18.59 2.48 17.37Q1.82 16.25 1.46 15.04Q1 13.53 1 11.88Q1 10.22 1.46 8.7Q1.83 7.49 2.48 6.37Q3.23 5.07 4.26 4.06Q5.25 3.08 6.49 2.36Q7.61 1.71 8.82 1.34Q10.34 0.89 12 0.89Q13.65 0.89 15.17 1.34Q16.38 1.71 17.5 2.36Q18.74 3.08 19.73 4.06Q20.76 5.07 21.51 6.37Q22.16 7.49 22.53 8.7Q22.99 10.22 22.99 11.88Q22.99 13.53 22.53 15.04Q22.17 16.25 21.51 17.37Q20.8 18.59 19.84 19.56Q18.81 20.61 17.5 21.38Q16.36 22.05 15.13 22.42ZM12.16 16.24Q12.24 16.27 12.31 16.31L15.21 18.19Q15.3 18.25 15.4 18.28Q15.62 18.36 15.88 18.31Q16.12 18.26 16.29 18.13Q16.4 18.05 16.48 17.94Q16.55 17.84 16.59 17.74Q16.67 17.51 16.6 17.23L15.79 13.84Q15.78 13.83 15.77 13.82Q15.76 13.8 15.76 13.78L15.76 13.7Q15.76 13.48 15.98 13.27L18.59 11.08Q18.77 10.95 18.85 10.77Q18.92 10.63 18.93 10.46Q18.95 10.24 18.88 10.05Q18.83 9.91 18.73 9.77Q18.66 9.68 18.57 9.62Q18.37 9.47 18.07 9.45L14.68 9.19Q14.58 9.19 14.49 9.16Q14.43 9.13 14.38 9.09Q14.37 9.09 14.36 9.08Q14.25 8.98 14.18 8.83L12.83 5.64Q12.76 5.45 12.63 5.33Q12.51 5.21 12.33 5.15Q12.14 5.07 11.95 5.08Q11.79 5.08 11.62 5.15Q11.48 5.2 11.37 5.29Q11.22 5.43 11.13 5.64L9.81 8.83Q9.75 8.96 9.65 9.06Q9.63 9.08 9.6 9.09Q9.56 9.13 9.51 9.15Q9.42 9.19 9.31 9.19L5.9 9.45Q5.59 9.47 5.39 9.63Q5.31 9.69 5.25 9.77Q5.16 9.89 5.12 10.03Q5.05 10.23 5.07 10.46Q5.09 10.66 5.17 10.82Q5.26 10.96 5.4 11.08L8.01 13.27Q8.05 13.3 8.08 13.34Q8.15 13.41 8.18 13.52Q8.2 13.59 8.21 13.67Q8.22 13.75 8.2 13.84L7.39 17.2Q7.34 17.4 7.37 17.59Q7.4 17.76 7.5 17.91Q7.6 18.08 7.75 18.18Q7.89 18.28 8.07 18.32Q8.23 18.36 8.39 18.34Q8.59 18.31 8.78 18.19L11.68 16.31Q11.75 16.27 11.83 16.24Q11.91 16.22 12 16.22Q12.08 16.22 12.16 16.24Z" fill="#46B1E3" fill-opacity="1.000000" fill-rule="evenodd"/>
</svg>
