<svg width="9.000000" height="16.000000" viewBox="0 0 9 16" xmlns="http://www.w3.org/2000/svg" xmlns:xlink="http://www.w3.org/1999/xlink">
    <path id="path" d="M8.73 15.71C8.92 15.55 9 15.35 8.99 15.13C8.99 14.9 8.9 14.7 8.73 14.52L2.12 8L8.69 1.44C8.89 1.26 8.98 1.06 8.98 0.83C8.98 0.6 8.89 0.41 8.69 0.26C8.51 0.09 8.27 0 7.98 0C7.7 -0.01 7.48 0.07 7.32 0.26L0.39 7.13C0.14 7.38 0.01 7.67 0 8C-0.02 8.32 0.11 8.61 0.39 8.86L7.32 15.71C7.5 15.89 7.72 15.99 7.98 15.99C8.25 16 8.5 15.91 8.73 15.71Z" fill="#000000" fill-opacity="0.898039" fill-rule="nonzero"></path>
  </svg>